<?xml version="1.0" standalone="no"?>
<svg viewBox="0 0 200 200" xmlns="http://www.w3.org/2000/svg">
  <path fill="#333333" d="M38.9,-55.3C50.4,-60.8,59.5,-50.2,69,-38.3C78.4,-26.4,88.2,-13.2,88.8,0.4C89.4,13.9,80.9,27.9,70.6,38.2C60.2,48.6,48.1,55.4,36,61.2C24,67,12,71.8,-1.4,74.3C-14.9,76.8,-29.7,77,-31.5,65.2C-33.2,53.5,-21.8,29.8,-29.7,16.9C-37.6,4,-64.8,2,-70.8,-3.5C-76.8,-8.9,-61.6,-17.9,-52.4,-28.4C-43.1,-38.9,-39.7,-50.9,-32,-47.6C-24.2,-44.2,-12.1,-25.4,0.8,-26.8C13.7,-28.2,27.5,-49.8,38.9,-55.3Z" transform="translate(100 100)" />
</svg>
