<?xml version="1.0" standalone="no"?>
<svg viewBox="0 0 200 200" xmlns="http://www.w3.org/2000/svg">
  <path fill="#62CDE0" d="M19.2,-32.7C31.2,-26.4,51.5,-33.9,54.6,-30.8C57.7,-27.6,43.6,-13.8,36.7,-4C29.8,5.8,30,11.6,27.6,16.1C25.3,20.7,20.5,23.9,15.5,30.8C10.5,37.7,5.2,48.3,-3.6,54.5C-12.4,60.8,-24.9,62.7,-29,55.3C-33.2,47.9,-29,31.1,-37.1,20.3C-45.3,9.6,-65.7,4.8,-69.8,-2.3C-73.8,-9.4,-61.4,-18.9,-53.3,-29.8C-45.3,-40.7,-41.6,-53.1,-33.4,-61.6C-25.2,-70.1,-12.6,-74.7,-4.5,-66.9C3.6,-59.2,7.3,-39,19.2,-32.7Z" transform="translate(100 100)" />
</svg>
